<svg width="52" height="52" viewBox="0 0 52 52" fill="none" xmlns="http://www.w3.org/2000/svg">
<rect width="52" height="52" rx="8" fill="#E2E7EB"/>
<path d="M38.8058 22.8391C38.2878 22.2985 37.7526 21.7407 37.5374 21.2214C37.3382 20.7393 37.3276 20.0261 37.3156 19.2717C37.297 18.0259 37.2758 16.6155 36.3302 15.6698C35.3845 14.7242 33.9688 14.703 32.7283 14.6844C31.9739 14.6724 31.2673 14.6618 30.7786 14.4626C30.2593 14.2474 29.7015 13.7122 29.1609 13.1942C28.2791 12.3495 27.2803 11.3906 26 11.3906C24.7197 11.3906 23.7209 12.3495 22.8391 13.1942C22.2985 13.7122 21.7407 14.2474 21.2214 14.4626C20.7393 14.6618 20.0261 14.6724 19.2717 14.6844C18.0259 14.703 16.6155 14.7242 15.6698 15.6698C14.7242 16.6155 14.703 18.0312 14.6844 19.2717C14.6724 20.0261 14.6618 20.7327 14.4626 21.2214C14.2474 21.7407 13.7122 22.2985 13.1942 22.8391C12.3495 23.7209 11.3906 24.7197 11.3906 26C11.3906 27.2803 12.3495 28.2791 13.1942 29.1609C13.7122 29.7015 14.2474 30.2593 14.4626 30.7786C14.6618 31.2607 14.6724 31.9739 14.6844 32.7283C14.703 33.9741 14.7242 35.3845 15.6698 36.3302C16.6155 37.2758 18.0312 37.297 19.2717 37.3156C20.0261 37.3276 20.7327 37.3382 21.2214 37.5374C21.7407 37.7526 22.2985 38.2878 22.8391 38.8058C23.7209 39.6505 24.7197 40.6094 26 40.6094C27.2803 40.6094 28.2791 39.6505 29.1609 38.8058C29.7015 38.2878 30.2593 37.7526 30.7786 37.5374C31.2607 37.3382 31.9739 37.3276 32.7283 37.3156C33.9741 37.297 35.3845 37.2758 36.3302 36.3302C37.2758 35.3845 37.297 33.9741 37.3156 32.7283C37.3276 31.9739 37.3382 31.2673 37.5374 30.7786C37.7526 30.2593 38.2878 29.7015 38.8058 29.1609C39.6505 28.2791 40.6094 27.2803 40.6094 26C40.6094 24.7197 39.6505 23.7209 38.8058 22.8391ZM37.6556 28.0586C37.0354 28.7041 36.3939 29.3734 36.0619 30.1703C35.7458 30.9327 35.7325 31.8331 35.7192 32.7044C35.7046 33.6925 35.6887 34.7152 35.2013 35.2039C34.7138 35.6927 33.6898 35.7073 32.7017 35.7219C31.8305 35.7352 30.93 35.7484 30.1677 36.0645C29.3708 36.3939 28.7067 37.0354 28.0546 37.6583C27.3573 38.3223 26.6362 39.0183 25.9973 39.0183C25.3585 39.0183 24.6373 38.3263 23.9388 37.6583C23.2933 37.038 22.6239 36.3966 21.827 36.0645C21.0647 35.7484 20.1642 35.7352 19.293 35.7219C18.3048 35.7073 17.2822 35.6913 16.7934 35.2039C16.3047 34.7165 16.2901 33.6925 16.2755 32.7044C16.2622 31.8331 16.2489 30.9327 15.9328 30.1703C15.6034 29.3734 14.962 28.7094 14.3391 28.0573C13.6763 27.36 12.9844 26.6388 12.9844 26C12.9844 25.3612 13.6763 24.64 14.3444 23.9414C14.9646 23.2959 15.6061 22.6266 15.9381 21.8297C16.2542 21.0673 16.2675 20.1669 16.2808 19.2956C16.2954 18.3075 16.3113 17.2848 16.7987 16.7961C17.2862 16.3073 18.3102 16.2927 19.2983 16.2781C20.1695 16.2648 21.07 16.2516 21.8323 15.9355C22.6292 15.6061 23.2933 14.9646 23.9454 14.3417C24.64 13.6763 25.3612 12.9844 26 12.9844C26.6388 12.9844 27.36 13.6763 28.0586 14.3444C28.7041 14.9646 29.3734 15.6061 30.1703 15.9381C30.9327 16.2542 31.8331 16.2675 32.7044 16.2808C33.6925 16.2954 34.7152 16.3113 35.2039 16.7987C35.6927 17.2862 35.7073 18.3102 35.7219 19.2983C35.7352 20.1695 35.7484 21.07 36.0645 21.8323C36.3939 22.6292 37.0354 23.2933 37.6583 23.9454C38.3223 24.6427 39.0183 25.3638 39.0183 26.0027C39.0183 26.6415 38.3237 27.36 37.6556 28.0586ZM27.3281 32.9062C27.3281 33.1689 27.2502 33.4257 27.1043 33.6441C26.9584 33.8625 26.7509 34.0328 26.5083 34.1333C26.2656 34.2338 25.9985 34.2601 25.7409 34.2089C25.4833 34.1576 25.2466 34.0311 25.0609 33.8454C24.8751 33.6596 24.7486 33.423 24.6974 33.1654C24.6461 32.9077 24.6725 32.6407 24.773 32.398C24.8735 32.1553 25.0437 31.9479 25.2621 31.802C25.4805 31.656 25.7373 31.5781 26 31.5781C26.3522 31.5781 26.6901 31.7181 26.9391 31.9671C27.1882 32.2162 27.3281 32.554 27.3281 32.9062ZM31.0469 23.3438C31.0469 25.5909 29.2021 27.4609 26.7969 27.8036V28.125C26.7969 28.3363 26.7129 28.539 26.5635 28.6885C26.414 28.8379 26.2113 28.9219 26 28.9219C25.7887 28.9219 25.586 28.8379 25.4365 28.6885C25.2871 28.539 25.2031 28.3363 25.2031 28.125V27.0625C25.2031 26.8512 25.2871 26.6485 25.4365 26.499C25.586 26.3496 25.7887 26.2656 26 26.2656C27.9045 26.2656 29.4531 24.9548 29.4531 23.3438C29.4531 21.7327 27.9045 20.4219 26 20.4219C24.0955 20.4219 22.5469 21.7327 22.5469 23.3438V23.875C22.5469 24.0863 22.4629 24.289 22.3135 24.4385C22.164 24.5879 21.9613 24.6719 21.75 24.6719C21.5387 24.6719 21.336 24.5879 21.1865 24.4385C21.0371 24.289 20.9531 24.0863 20.9531 23.875V23.3438C20.9531 20.8535 23.2109 18.8281 26 18.8281C28.7891 18.8281 31.0469 20.8535 31.0469 23.3438Z" fill="#1E3F5E"/>
</svg>
