<svg width="249" height="79" viewBox="0 0 249 79" fill="none" xmlns="http://www.w3.org/2000/svg">
<path d="M77.6619 21.3177L63.449 28.1183L63.3934 42.2218C61.3443 46.7807 55.0202 49.3178 50.444 50.6602C49.3965 50.9687 45.7304 51.9501 44.8531 51.9763C43.0822 52.0256 41.092 47.7981 38.9513 47.5389C36.5388 47.2467 34.4897 51.786 32.6042 51.7302C31.1116 51.6842 27.4029 50.4173 25.848 49.8594C24.2604 49.2883 22.172 48.4382 20.7056 47.6275C18.9609 46.6658 15.4388 44.2272 15.0885 42.1791L15.2358 27.9969C15.0787 27.5341 12.4862 26.6282 11.8381 26.3558V34.1115C11.8381 34.6596 13.1049 37.5841 13.2456 38.8575C13.4256 40.5314 13.4191 42.7469 11.203 42.8355C8.16536 42.9602 8.62036 39.4286 9.00334 37.4167C9.23247 36.2088 9.95589 34.8828 10.0999 33.8391C10.4305 31.4595 10.041 28.2726 10.3258 25.7748L9.97225 25.3908L0.705388 20.8943C-0.040937 20.5759 -0.224245 19.4271 0.296218 18.8396C0.587547 18.5114 3.74633 17.1395 4.47302 16.7489L5.2619 16.3682L5.7529 16.1318L6.2079 15.9152L6.50904 15.7708L6.87566 15.5936L7.43213 15.3277L7.78238 15.1603L10.1228 14.0378C19.3308 9.49202 28.4569 4.72303 37.6877 0.200212L39.4652 0C52.5946 6.13108 65.6455 12.4591 78.6439 18.8298C79.8551 20.1098 78.788 20.7006 77.6587 21.3177H77.6619Z" fill="#1E3F5E"/>
<path d="M69.3176 51.2607C63.0411 57.3846 56.7711 63.5741 50.5996 69.8028C49.8876 70.3795 49.4119 70.7202 48.4374 70.5007C46.6624 70.1042 40.9633 62.5387 38.7814 61.4443C36.7046 63.2529 34.5982 65.2484 32.5902 67.1914C31.3697 68.3742 30.1459 69.6062 28.9286 70.7858C26.481 73.1613 24.1613 75.6973 21.6678 78.0368C21.0378 78.2891 20.398 78.2694 19.8107 77.9319C19.335 77.6567 15.6504 73.7478 15.5586 73.312C15.447 72.7746 16.0212 71.9391 16.3657 71.5132C23.2591 65.1534 29.6111 58.1448 36.5602 51.8636C37.2263 51.264 37.7151 49.9403 38.9619 50.1795C40.586 50.4908 46.7707 58.4495 48.8672 59.4947L49.2314 59.3702L71.5225 37.3518C72.2738 35.6873 66.1056 33.5149 69.9017 31.3262C73.7995 31.3884 78.2682 30.8642 82.1102 31.2049C82.8977 31.2737 83.7212 31.336 83.7114 32.3091C83.4423 36.0313 84.2987 39.9435 83.9542 43.6395C83.8229 45.0484 83.2848 46.2476 81.6181 45.9691C80.683 45.8118 78.5635 42.6794 77.9467 42.7876C75.066 45.6087 72.1951 48.4462 69.3111 51.2607H69.3176Z" fill="#19B287"/>
<path d="M18.0028 29.3891L39.6882 40.2987L63.6351 28.1743L63.5793 41.7597C63.5793 41.7597 64.3408 49.4749 44.3457 52.4625L40.5416 48.9299C39.406 47.8761 37.6467 47.8859 36.5242 48.9529L33.1993 52.1178C33.1993 52.1178 22.1613 50.1709 17.4875 45.3645L18.0061 29.3891H18.0028Z" fill="#375E82"/>
<path d="M126.066 49.8094H119.323C118.832 49.8094 114.864 42.3237 114.325 41.3085C114.121 40.9247 114.096 40.0941 113.999 40.0115C113.737 39.7783 110.118 40.0406 109.355 40.0212C108.69 40.4438 109.671 48.3812 109.302 49.8094H103.468V21.3824H116.768C117.312 21.3824 120.538 22.7814 121.145 23.1992C124.987 25.8758 125.745 31.943 123.088 35.7173C122.213 36.9609 119.751 38.2385 119.857 39.3946C119.998 40.8907 125.585 47.5554 126.066 49.8045V49.8094ZM109.297 34.8673C113.314 35.3384 120.484 34.6001 118.133 28.7661C117.793 27.916 115.738 26.483 114.946 26.483H109.297V34.8673Z" fill="#1E3F5E"/>
<path d="M206.605 21.3824V41.2453C206.605 41.7262 208.252 43.7956 208.811 44.1453C210.103 44.9517 212.638 45.01 214.033 44.2959C214.654 43.9753 216.447 41.7845 216.447 41.2453V21.3824H222.096C222.495 21.3824 222.616 22.2714 222.66 22.6406C223.136 26.7161 223.014 36.3246 222.636 40.5118C221.63 51.597 205.94 53.8169 201.548 44.4805C201.257 43.8587 200.412 41.3862 200.412 40.881V21.3824H206.605Z" fill="#1E3F5E"/>
<path d="M233.211 47.9926C233.308 49.6005 234.104 56.134 233.415 57.1249C233.041 57.6593 227.746 57.8196 227.43 56.8675L227.537 28.6494C230.024 28.12 233.385 27.2553 233.031 30.8645C235.353 29.0235 237.514 27.6876 240.638 27.9791C253.001 29.1401 251.514 53.0105 237.116 50.0911C235.659 49.7948 234.595 48.4006 233.211 47.9877V47.9926ZM236.747 33.1233C231.705 34.2794 231.554 47.1911 239.511 45.3597C244.403 44.2328 244.898 31.258 236.747 33.1233Z" fill="#1E3F5E"/>
<path d="M184.741 20.6538V37.4175C186.203 36.6986 190.653 28.3046 191.483 28.3046H197.497C197.847 29.5627 196.769 29.4559 196.394 30.0339C195.938 30.7383 195.666 31.5252 195.093 32.283C194.209 33.4488 190.541 37.1212 190.585 38.3308C190.643 40.0261 197.847 47.4486 198.59 49.8094H191.304C190.06 47.2445 188.18 44.4125 186.499 42.042C186.077 41.4445 185.518 40.1669 184.746 40.3321V49.8094H178.917V20.6538H184.746H184.741Z" fill="#1E3F5E"/>
<path d="M142.465 37.0581C142.844 32.8708 139.244 31.9915 135.8 32.7591C134.581 33.0311 133.459 34.8041 132.142 34.5272C130.292 31.7487 128.509 31.6029 132.303 29.621C137.704 26.7987 147.25 27.2893 148.265 34.7167C148.493 36.3683 147.871 44.3543 148.649 44.8983C149.256 45.3209 150.227 44.6894 150.485 45.9767C150.572 46.4236 150.553 49.5617 150.431 49.756C149.931 50.5526 146.613 50.1106 145.661 49.7122C144.588 49.2653 143.84 47.9829 143.708 47.9635C143.121 47.8663 140.75 49.8434 139.283 50.0911C133.483 51.0675 126.94 47.604 129.932 41.1045C130.666 39.5063 134.1 37.0581 135.727 37.0581H142.47H142.465ZM142.829 40.337H137.544C135.076 40.337 133.211 45.3938 137.52 45.8261C141.829 46.2585 143.242 44.4174 142.829 40.337Z" fill="#1E3F5E"/>
<path d="M174.171 49.8093H168.342V37.6021C168.342 36.2031 167.394 34.3329 166.127 33.6236C164.441 32.6813 162.682 32.9047 161.235 34.1386C160.696 34.5952 159.598 36.3148 159.598 36.8734V49.8093H153.769V28.6737C154.939 28.8 158.791 27.673 159.18 28.9117C159.413 29.6598 158.898 30.6411 159.782 31.2191C162.658 27.1776 169.877 26.7841 172.723 31.0442C173.034 31.5106 174.18 34.3086 174.18 34.6923V49.819L174.171 49.8093Z" fill="#1E3F5E"/>
</svg>
