<svg width="234" height="251" viewBox="0 0 234 251" fill="none" xmlns="http://www.w3.org/2000/svg">
<g clip-path="url(#clip0_35_19)">
<path d="M206.296 50.5017L172.382 66.6125L172.249 100.024C167.359 110.824 152.269 116.834 141.35 120.014C138.85 120.745 130.102 123.07 128.009 123.132C123.784 123.249 119.035 113.234 113.927 112.62C108.17 111.928 103.281 122.681 98.7816 122.549C95.2199 122.44 86.3705 119.439 82.6604 118.117C78.8722 116.764 73.889 114.75 70.3898 112.83C66.2267 110.552 57.8224 104.774 56.9867 99.9226L57.3382 66.3248C56.9633 65.2284 50.7772 63.0824 49.2307 62.437V80.8105C49.2307 82.109 52.2534 89.0369 52.5893 92.0538C53.0189 96.0193 53.0032 101.268 47.7154 101.478C40.4671 101.773 41.5528 93.4067 42.4666 88.6404C43.0134 85.779 44.7395 82.6377 45.0832 80.1651C45.8721 74.5279 44.9426 66.9779 45.6222 61.0608L44.7786 60.1511L22.6666 49.4987C20.8857 48.7444 20.4483 46.023 21.6902 44.6312C22.3854 43.8537 29.9227 40.6035 31.6567 39.6782L33.539 38.7763L34.7106 38.2164L35.7963 37.7033L36.5149 37.3611L37.3897 36.9413L38.7175 36.3115L39.5533 35.9149L45.1379 33.2557C67.1093 22.4867 88.8855 11.1889 110.912 0.474304L115.153 0C146.481 14.5246 177.623 29.5157 208.639 44.6079C211.529 47.6403 208.982 49.0399 206.288 50.5017H206.296Z" fill="white"/>
<path d="M186.081 121.671C171.14 136.203 156.213 150.891 141.522 165.672C139.827 167.04 138.694 167.849 136.374 167.328C132.149 166.387 118.582 148.434 113.388 145.837C108.443 150.129 103.429 154.864 98.6488 159.475C95.7432 162.282 92.8299 165.205 89.9321 168.005C84.1053 173.642 78.5832 179.66 72.6471 185.212C71.1474 185.81 69.6243 185.764 68.2262 184.963C67.0937 184.31 58.3223 175.034 58.1036 174C57.838 172.724 59.2049 170.742 60.025 169.731C76.4352 154.639 91.5567 138.007 108.1 123.101C109.685 121.678 110.849 118.537 113.817 119.105C117.683 119.843 132.407 138.73 137.398 141.21L138.265 140.915L191.33 88.6637C193.119 84.7138 178.435 79.5586 187.472 74.3646C196.751 74.5124 207.389 73.2683 216.535 74.0769C218.41 74.2402 220.37 74.388 220.347 76.6973C219.706 85.5302 221.745 94.8141 220.925 103.585C220.612 106.928 219.332 109.774 215.364 109.113C213.138 108.74 208.092 101.307 206.624 101.563C199.766 108.258 192.931 114.991 186.066 121.671H186.081Z" fill="white"/>
<path d="M36.3353 238.606H25.494C24.7052 238.606 18.3238 226.624 17.4569 224.999C17.1288 224.384 17.0898 223.055 16.9335 222.923C16.5118 222.549 10.6928 222.969 9.46654 222.938C8.39647 223.615 9.97423 236.32 9.38062 238.606H0V193.104H21.3856C22.2604 193.104 27.4467 195.343 28.423 196.012C34.6013 200.296 35.8198 210.008 31.5473 216.049C30.1414 218.04 26.1814 220.085 26.3532 221.935C26.5797 224.33 35.562 234.998 36.3353 238.598V238.606ZM9.37281 214.688C15.8322 215.443 27.3608 214.261 23.5804 204.922C23.0337 203.562 19.7298 201.268 18.4566 201.268H9.37281V214.688Z" fill="white"/>
<path d="M165.836 193.104V224.898C165.836 225.667 168.484 228.98 169.382 229.54C171.46 230.83 175.537 230.924 177.779 229.781C178.779 229.267 181.661 225.761 181.661 224.898V193.104H190.744C191.385 193.104 191.58 194.527 191.651 195.118C192.416 201.641 192.221 217.021 191.611 223.724C189.995 241.467 164.766 245.021 157.705 230.076C157.237 229.081 155.878 225.123 155.878 224.314V193.104H165.836Z" fill="white"/>
<path d="M208.615 235.698C208.772 238.272 210.052 248.73 208.943 250.316C208.342 251.171 199.828 251.428 199.321 249.904L199.492 204.736C203.492 203.888 208.897 202.504 208.326 208.282C212.06 205.335 215.536 203.196 220.558 203.663C240.436 205.521 238.046 243.73 214.895 239.057C212.552 238.583 210.841 236.351 208.615 235.69V235.698ZM214.301 211.897C206.194 213.748 205.952 234.415 218.746 231.484C226.611 229.68 227.408 208.911 214.301 211.897Z" fill="white"/>
<path d="M130.68 191.938V218.771C133.031 217.62 140.186 204.184 141.522 204.184H151.191C151.754 206.198 150.02 206.027 149.418 206.952C148.684 208.079 148.247 209.339 147.325 210.552C145.903 212.418 140.006 218.296 140.077 220.232C140.17 222.946 151.754 234.827 152.949 238.606H141.233C139.233 234.5 136.21 229.967 133.508 226.173C132.828 225.217 131.93 223.172 130.688 223.436V238.606H121.315V191.938H130.688H130.68Z" fill="white"/>
<path d="M62.7041 218.195C63.3133 211.493 57.5256 210.085 51.9879 211.314C50.0274 211.749 48.2231 214.587 46.1064 214.144C43.1305 209.697 40.264 209.463 46.3642 206.291C55.0496 201.773 70.3976 202.559 72.03 214.447C72.3972 217.091 71.3974 229.874 72.6471 230.745C73.6234 231.421 75.1856 230.411 75.5995 232.471C75.7401 233.186 75.7089 238.209 75.5136 238.52C74.7091 239.796 69.3744 239.088 67.8435 238.45C66.1174 237.735 64.9145 235.682 64.7036 235.651C63.7585 235.496 59.9469 238.66 57.5881 239.057C48.2622 240.62 37.7412 235.076 42.5526 224.672C43.732 222.114 49.2541 218.195 51.8707 218.195H62.7119H62.7041ZM63.2899 223.444H54.7919C50.8241 223.444 47.8248 231.538 54.7528 232.23C61.6809 232.922 63.9538 229.975 63.2899 223.444Z" fill="white"/>
<path d="M113.684 238.606H104.312V219.066C104.312 216.827 102.788 213.833 100.75 212.698C98.0396 211.19 95.2121 211.547 92.8846 213.522C92.0176 214.253 90.2524 217.006 90.2524 217.9V238.606H80.8795V204.775C82.7619 204.977 88.9558 203.173 89.5806 205.156C89.9556 206.353 89.1276 207.924 90.5492 208.849C95.1731 202.38 106.78 201.75 111.357 208.569C111.857 209.316 113.7 213.794 113.7 214.409V238.621L113.684 238.606Z" fill="white"/>
<path d="M63.7898 69.4817L115.395 95.3195L172.382 66.6047L172.249 98.7796C172.249 98.7796 174.061 117.052 126.478 124.128L117.426 115.761C114.723 113.265 110.537 113.289 107.865 115.816L99.9532 123.311C99.9532 123.311 73.6859 118.7 62.5635 107.317L63.7976 69.4817H63.7898Z" fill="#D5D5D5"/>
</g>
<defs>
<clipPath id="clip0_35_19">
<rect width="234" height="251" fill="white"/>
</clipPath>
</defs>
</svg>
