<svg width="29" height="29" viewBox="0 0 29 29" fill="none" xmlns="http://www.w3.org/2000/svg">
<path d="M20.3365 24.0692C19.2039 25.1671 17.9673 24.9937 16.7768 24.4737C15.5171 23.942 14.3614 23.9189 13.0323 24.4737C11.368 25.1902 10.4897 24.9822 9.49575 24.0692C3.85579 18.2558 4.68791 9.40295 11.0907 9.07934C12.6509 9.16024 13.7373 9.93458 14.6503 10.0039C16.0141 9.72655 17.32 8.9291 18.7763 9.03311C20.5214 9.1718 21.8389 9.86524 22.7057 11.1134C19.0999 13.2746 19.9551 18.0247 23.2605 19.3538C22.6017 21.0874 21.7465 22.8094 20.3249 24.0807L20.3365 24.0692ZM14.5347 9.01C14.3614 6.43272 16.4532 4.30618 18.8572 4.09814C19.1923 7.07993 16.1528 9.29893 14.5347 9.01Z" fill="black"/>
</svg>
