<svg width="36" height="35" viewBox="0 0 36 35" fill="none" xmlns="http://www.w3.org/2000/svg">
<rect x="35.5" y="35" width="35" height="35" rx="17.5" transform="rotate(-180 35.5 35)" fill="#D9D9D9"/>
<path d="M25.0001 26.4999L25.0001 8.49992C24.9995 8.31767 24.9493 8.13904 24.8547 7.98324C24.7602 7.82744 24.6249 7.70037 24.4636 7.61572C24.3022 7.53107 24.1207 7.49203 23.9388 7.50281C23.7569 7.5136 23.5814 7.57379 23.4311 7.67692L10.4311 16.6769C9.89211 17.0499 9.89211 17.9479 10.4311 18.3219L23.4311 27.3219C23.581 27.4261 23.7567 27.4872 23.9389 27.4986C24.1211 27.5099 24.303 27.4711 24.4647 27.3864C24.6264 27.3017 24.7619 27.1742 24.8562 27.018C24.9506 26.8617 25.0004 26.6825 25.0001 26.4999ZM12.7571 17.4999L23.0001 10.4079L23.0001 24.5919L12.7571 17.4999Z" fill="black"/>
</svg>
