<svg width="24" height="24" viewBox="0 0 24 24" fill="none" xmlns="http://www.w3.org/2000/svg">
<rect width="24" height="24" rx="6" fill="#0BC9CF"/>
<path d="M11.7801 16.5299C11.6394 16.6704 11.4488 16.7493 11.2501 16.7493C11.0513 16.7493 10.8607 16.6704 10.7201 16.5299L6.47007 12.2799C6.32962 12.1393 6.25073 11.9487 6.25073 11.7499C6.25073 11.5512 6.32962 11.3606 6.47007 11.2199L10.7201 6.96993C10.8622 6.83728 11.0503 6.76502 11.2447 6.76838C11.4391 6.77174 11.6246 6.85045 11.7621 6.98793C11.8995 7.12541 11.9783 7.3109 11.9816 7.50529C11.985 7.69968 11.9127 7.88778 11.7801 8.02993L8.81007 10.9999L16.2501 10.9999C16.449 10.9999 16.6397 11.0789 16.7804 11.2196C16.9211 11.3602 17.0001 11.551 17.0001 11.7499C17.0001 11.9488 16.9211 12.1396 16.7804 12.2803C16.6397 12.4209 16.449 12.4999 16.2501 12.4999L8.81007 12.4999L11.7801 15.4699C11.9205 15.6106 11.9994 15.8012 11.9994 15.9999C11.9994 16.1987 11.9205 16.3893 11.7801 16.5299Z" fill="#1E3F5E"/>
</svg>
