<svg width="33" height="33" viewBox="0 0 33 33" fill="none" xmlns="http://www.w3.org/2000/svg">
<rect width="32.3619" height="32.3619" rx="8.82597" fill="#0BC9CF"/>
<path d="M16.1812 17.4969L11.5761 22.1019C11.4038 22.2742 11.1845 22.3604 10.9183 22.3604C10.652 22.3604 10.4327 22.2742 10.2604 22.1019C10.0881 21.9296 10.002 21.7103 10.002 21.444C10.002 21.1778 10.0881 20.9585 10.2604 20.7862L14.8654 16.1812L10.2604 11.5761C10.0881 11.4038 10.002 11.1845 10.002 10.9183C10.002 10.652 10.0881 10.4327 10.2604 10.2604C10.4327 10.0881 10.652 10.002 10.9183 10.002C11.1845 10.002 11.4038 10.0881 11.5761 10.2604L16.1812 14.8654L20.7862 10.2604C20.9585 10.0881 21.1778 10.002 21.444 10.002C21.7103 10.002 21.9296 10.0881 22.1019 10.2604C22.2742 10.4327 22.3604 10.652 22.3604 10.9183C22.3604 11.1845 22.2742 11.4038 22.1019 11.5761L17.4969 16.1812L22.1019 20.7862C22.2742 20.9585 22.3604 21.1778 22.3604 21.444C22.3604 21.7103 22.2742 21.9296 22.1019 22.1019C21.9296 22.2742 21.7103 22.3604 21.444 22.3604C21.1778 22.3604 20.9585 22.2742 20.7862 22.1019L16.1812 17.4969Z" fill="black"/>
</svg>
