<svg width="34" height="33" viewBox="0 0 34 33" fill="none" xmlns="http://www.w3.org/2000/svg">
<rect x="0.5" width="33" height="33" rx="16.5" fill="#1BB287"/>
<path d="M20.975 9.90807L23.092 12.0251M22.336 8.04307L16.609 13.7701C16.3122 14.0649 16.1102 14.4417 16.029 14.8521L15.5 17.5001L18.148 16.9701C18.558 16.8881 18.934 16.6871 19.23 16.3911L24.957 10.6641C25.1291 10.492 25.2656 10.2877 25.3588 10.0628C25.4519 9.83795 25.4998 9.59695 25.4998 9.35357C25.4998 9.11019 25.4519 8.86919 25.3588 8.64433C25.2656 8.41948 25.1291 8.21517 24.957 8.04307C24.7849 7.87097 24.5806 7.73446 24.3557 7.64132C24.1309 7.54818 23.8899 7.50024 23.6465 7.50024C23.4031 7.50024 23.1621 7.54818 22.9373 7.64132C22.7124 7.73446 22.5081 7.87097 22.336 8.04307Z" stroke="white" stroke-width="2" stroke-linecap="round" stroke-linejoin="round"/>
<path d="M23.5 19.5V22.5C23.5 23.0304 23.2893 23.5391 22.9142 23.9142C22.5391 24.2893 22.0304 24.5 21.5 24.5H10.5C9.96957 24.5 9.46086 24.2893 9.08579 23.9142C8.71071 23.5391 8.5 23.0304 8.5 22.5V11.5C8.5 10.9696 8.71071 10.4609 9.08579 10.0858C9.46086 9.71071 9.96957 9.5 10.5 9.5H13.5" stroke="white" stroke-width="2" stroke-linecap="round" stroke-linejoin="round"/>
</svg>
