<svg width="38" height="38" viewBox="0 0 38 38" fill="none" xmlns="http://www.w3.org/2000/svg">
<circle cx="19" cy="19" r="19" fill="white"/>
<path d="M24.66 18.2C24.43 17.9 24.15 17.64 23.89 17.38C23.22 16.78 22.46 16.35 21.82 15.72C20.33 14.26 20 11.85 20.95 10C20 10.23 19.17 10.75 18.46 11.32C15.87 13.4 14.85 17.07 16.07 20.22C16.11 20.32 16.15 20.42 16.15 20.55C16.15 20.77 16 20.97 15.8 21.05C15.57 21.15 15.33 21.09 15.14 20.93C15.0833 20.8825 15.0358 20.8248 15 20.76C13.87 19.33 13.69 17.28 14.45 15.64C12.78 17 11.87 19.3 12 21.47C12.06 21.97 12.12 22.47 12.29 22.97C12.43 23.57 12.7 24.17 13 24.7C14.08 26.43 15.95 27.67 17.96 27.92C20.1 28.19 22.39 27.8 24.0301 26.32C25.8601 24.66 26.5 22 25.56 19.72L25.43 19.46C25.22 19 24.66 18.2 24.66 18.2ZM21.5 24.5C21.22 24.74 20.76 25 20.4 25.1C19.28 25.5 18.16 24.94 17.5 24.28C18.69 24 19.4 23.12 19.61 22.23C19.78 21.43 19.46 20.77 19.33 20C19.21 19.26 19.23 18.63 19.5 17.94C19.69 18.32 19.89 18.7 20.13 19C20.9 20 22.11 20.44 22.37 21.8C22.41 21.94 22.43 22.08 22.43 22.23C22.46 23.05 22.1 23.95 21.5 24.5Z" fill="black"/>
</svg>
