<svg width="61" height="60" viewBox="0 0 61 60" fill="none" xmlns="http://www.w3.org/2000/svg">
<circle cx="30.5" cy="30" r="30" fill="white"/>
<path d="M39.7527 30.8164C39.2794 34.7581 36.6977 36.3331 35.5827 37.4764C34.466 38.6231 34.666 38.8514 34.741 40.5331C34.7535 40.7412 34.7233 40.9496 34.6522 41.1455C34.5811 41.3415 34.4707 41.5208 34.3276 41.6724C34.1846 41.824 34.012 41.9447 33.8206 42.0271C33.6291 42.1095 33.4228 42.1518 33.2144 42.1514H28.7844C28.5761 42.1511 28.37 42.1083 28.1788 42.0257C27.9876 41.943 27.8152 41.8223 27.6722 41.6709C27.5292 41.5195 27.4185 41.3405 27.347 41.1449C27.2754 40.9492 27.2445 40.7411 27.256 40.5331C27.256 38.8831 27.4094 38.4998 26.416 37.4764C25.1494 36.2098 22.1694 34.4214 22.1694 29.5031C22.1618 28.2814 22.4073 27.0714 22.8905 25.9494C23.3738 24.8273 24.0842 23.8175 24.9771 22.9837C25.87 22.1498 26.9259 21.51 28.0783 21.1045C29.2308 20.699 30.4547 20.5366 31.673 20.6276C32.8913 20.7186 34.0775 21.061 35.1569 21.6332C36.2363 22.2054 37.1855 22.995 37.9446 23.9523C38.7037 24.9095 39.2562 26.0136 39.5674 27.195C39.8786 28.3764 39.9417 29.6095 39.7527 30.8164Z" stroke="black" stroke-width="2.5" stroke-linecap="round" stroke-linejoin="round"/>
<path d="M28.4332 42.06V44.58C28.4332 45.2683 28.8165 45.8333 29.2882 45.8333H32.7099C33.1849 45.8333 33.5665 45.2667 33.5665 44.58V42.06M29.6999 24.4933C28.7157 24.4938 27.7721 24.885 27.0764 25.581C26.3807 26.2771 25.9899 27.2209 25.9899 28.205M43.2199 29.84H46.2765M40.1432 19.82L42.3115 17.6517M41.8099 38.3333L43.9782 40.5M30.9999 13.9617V16.4333M19.7332 17.65L21.8865 19.82M18.0665 40.5L20.2199 38.3333M18.7799 29.84H15.7249" stroke="black" stroke-width="2.5" stroke-linecap="round" stroke-linejoin="round"/>
</svg>
