<svg width="28" height="29" viewBox="0 0 28 29" fill="none" xmlns="http://www.w3.org/2000/svg">
<path d="M14.001 2.94165C7.61498 2.94165 2.44263 8.114 2.44263 14.5C2.44054 16.9264 3.20289 19.2919 4.62144 21.2604C6.03999 23.229 8.04265 24.7007 10.3451 25.4665C10.923 25.5671 11.1403 25.2203 11.1403 24.9164C11.1403 24.6424 11.1252 23.7328 11.1252 22.7642C8.2218 23.2993 7.47051 22.0568 7.23934 21.4061C7.10873 21.0732 6.54584 20.048 6.05461 19.7729C5.65007 19.5568 5.07215 19.0216 6.03958 19.0077C6.95038 18.9927 7.59996 19.8457 7.81726 20.1925C8.85751 21.9401 10.5184 21.4489 11.183 21.146C11.2848 20.3947 11.5876 19.8896 11.9205 19.6007C9.34873 19.3117 6.66142 18.3142 6.66142 13.8932C6.66142 12.6356 7.10873 11.5965 7.84615 10.7874C7.73057 10.4985 7.32603 9.31376 7.96174 7.72449C7.96174 7.72449 8.92917 7.42051 11.1403 8.90806C12.0813 8.64759 13.0534 8.51654 14.0299 8.51855C15.0123 8.51855 15.9948 8.648 16.9194 8.90806C19.1306 7.40548 20.098 7.72449 20.098 7.72449C20.7337 9.31376 20.3291 10.4985 20.2136 10.7874C20.9498 11.5965 21.3983 12.6218 21.3983 13.8932C21.3983 18.3293 18.6971 19.3117 16.1254 19.6007C16.5438 19.9613 16.9056 20.6548 16.9056 21.739C16.9056 23.2843 16.8905 24.5268 16.8905 24.9175C16.8905 25.2203 17.1078 25.581 17.6858 25.4654C19.9795 24.6899 21.9726 23.2151 23.3847 21.2482C24.7968 19.2813 25.5569 16.9213 25.5581 14.5C25.5581 8.114 20.3858 2.94165 13.9998 2.94165" fill="black"/>
</svg>
