<svg width="28" height="27" viewBox="0 0 28 27" fill="none" xmlns="http://www.w3.org/2000/svg">
<path opacity="0.987" fill-rule="evenodd" clip-rule="evenodd" d="M12.665 1.78538C13.8885 1.64869 14.6124 1.64869 15.927 1.78538C18.2539 2.12979 20.411 3.20538 22.0864 4.85663C20.9543 5.92673 19.837 7.01246 18.735 8.1135C16.6245 6.32475 14.2687 5.91188 11.6677 6.87488C9.75973 7.75238 8.43111 9.17438 7.68186 11.1409C6.45748 10.2293 5.24904 9.29657 4.05711 8.343C3.97427 8.2994 3.87967 8.28343 3.78711 8.29744C5.68048 4.64681 8.63923 2.47556 12.6634 1.78369" fill="#F44336"/>
<path opacity="0.997" fill-rule="evenodd" clip-rule="evenodd" d="M3.78381 8.29737C3.87944 8.28275 3.97 8.29794 4.0555 8.34294C5.24744 9.29651 6.45587 10.2293 7.68025 11.1408C7.48758 11.907 7.36613 12.6894 7.31744 13.478C7.35906 14.2407 7.48 14.9894 7.68025 15.7241L3.87494 18.7531C2.21781 15.2904 2.18744 11.8051 3.78381 8.29737Z" fill="#FFC107"/>
<path opacity="0.999" fill-rule="evenodd" clip-rule="evenodd" d="M21.9059 22.4217C20.721 21.3768 19.4806 20.3966 18.19 19.4855C19.4837 18.572 20.269 17.3187 20.5457 15.7257H14.2058V11.3231C17.8621 11.2927 21.5166 11.3236 25.1695 11.4159C25.8625 15.179 25.0621 18.572 22.7682 21.5949C22.4954 21.8848 22.2065 22.1608 21.9059 22.4217Z" fill="#448AFF"/>
<path opacity="0.993" fill-rule="evenodd" clip-rule="evenodd" d="M7.68031 15.7258C9.06406 19.165 11.6009 20.7703 15.2909 20.542C16.3268 20.422 17.3199 20.0602 18.1901 19.4856C19.4816 20.3991 20.7202 21.3778 21.9059 22.4218C20.0272 24.1101 17.6317 25.1118 15.1104 25.2636C14.5375 25.3094 13.962 25.3094 13.3891 25.2636C9.09388 24.7573 5.9225 22.5872 3.875 18.7532L7.68031 15.7258Z" fill="#43A047"/>
</svg>
