<svg width="28" height="29" viewBox="0 0 28 29" fill="none" xmlns="http://www.w3.org/2000/svg">
<path d="M25.3314 12.2363H24.4006V12.1884H13.9997V16.811H20.5309C19.578 19.5019 17.0177 21.4336 13.9997 21.4336C10.1704 21.4336 7.06574 18.3289 7.06574 14.4997C7.06574 10.6704 10.1704 7.56574 13.9997 7.56574C15.7672 7.56574 17.3753 8.23255 18.5998 9.32175L21.8685 6.05298C19.8045 4.1294 17.0437 2.94312 13.9997 2.94312C7.61756 2.94312 2.44312 8.11756 2.44312 14.4997C2.44312 20.8818 7.61756 26.0562 13.9997 26.0562C20.3818 26.0562 25.5562 20.8818 25.5562 14.4997C25.5562 13.7248 25.4765 12.9684 25.3314 12.2363Z" fill="#EEEEEE"/>
<path d="M3.77612 9.12067L7.57303 11.9052C8.6004 9.36162 11.0885 7.56574 14.0002 7.56574C15.7678 7.56574 17.3759 8.23255 18.6003 9.32175L21.8691 6.05298C19.8051 4.1294 17.0442 2.94312 14.0002 2.94312C9.56133 2.94312 5.71185 5.44915 3.77612 9.12067Z" fill="#EEEEEE"/>
<path d="M14.0004 26.0566C16.9854 26.0566 19.6978 24.9142 21.7485 23.0565L18.1717 20.0298C16.9725 20.9419 15.507 21.4351 14.0004 21.4339C10.9945 21.4339 8.44225 19.5173 7.48075 16.8425L3.71216 19.7461C5.62477 23.4887 9.50892 26.0566 14.0004 26.0566Z" fill="#EEEEEE"/>
<path d="M25.3318 12.2364H24.4009V12.1885H14V16.8111H20.5312C20.0754 18.0918 19.2544 19.2109 18.1696 20.0302L18.1713 20.029L21.7481 23.0557C21.495 23.2857 25.5566 20.2781 25.5566 14.4998C25.5566 13.7249 25.4768 12.9685 25.3318 12.2364Z" fill="#EEEEEE"/>
</svg>
