<svg width="83" height="76" viewBox="0 0 83 76" fill="none" xmlns="http://www.w3.org/2000/svg">
<g clip-path="url(#clip0_357_452)">
<path d="M22.7059 63.3103C24.1148 63.2257 25.8169 63.528 27.0957 64.1871C28.0571 64.6829 30.8324 67.3282 30.1794 68.3682C29.9678 68.7068 27.4706 70.1429 26.9385 70.2819C22.4973 71.4308 18.8906 68.9517 16.1152 65.8015C17.9292 64.5347 20.4808 63.4433 22.7059 63.3133V63.3103Z" fill="#1E3F5E"/>
<path d="M8.55103 56.2783C14.0927 54.682 20.1301 55.8308 21.5117 62.1404C16.4024 65.9648 9.91149 61.7685 8.55103 56.2783Z" fill="#1E3F5E"/>
<path d="M74.7603 56.2779C72.6592 61.6442 66.9966 66.0491 61.4973 62.14C63.0089 55.6249 69.0706 54.7814 74.7603 56.2779Z" fill="#1E3F5E"/>
<path d="M58.9789 63.3043C61.6364 63.1017 64.7382 64.2929 66.8938 65.7984C64.055 68.9184 60.5601 71.4398 56.0705 70.2789C55.0184 70.0068 52.4426 68.5798 52.8115 67.4491C53.4947 65.348 56.8657 63.4675 58.9789 63.3043Z" fill="#1E3F5E"/>
<path d="M7.31152 34.7888C0.893145 33.8637 -0.452205 26.5655 2.06919 21.5137C7.375 23.899 10.5041 29.3197 7.31454 34.7888H7.31152Z" fill="#1E3F5E"/>
<path d="M14.2953 54.7632H9.60922C9.39155 54.7632 6.76132 53.1337 6.42574 52.8072C4.6269 51.0688 3.5476 47.9669 3.1062 45.5453C8.9169 44.7744 15.0662 48.23 14.2953 54.7632Z" fill="#1E3F5E"/>
<path d="M75.6945 34.789C72.4748 29.2201 75.5917 23.9506 80.9489 21.5078C83.4492 26.6715 82.0887 33.7399 75.6945 34.789Z" fill="#1E3F5E"/>
<path d="M68.7139 54.7635C67.943 48.2303 74.0953 44.7777 79.903 45.5456C79.4253 47.9975 78.3006 51.2384 76.4202 52.9465C75.9667 53.3577 73.5481 54.7635 73.0976 54.7635H68.7139Z" fill="#1E3F5E"/>
<path d="M34.1883 68.1354C36.5948 68.0024 39.098 69.3629 40.5401 71.2373C37.3808 76.7427 30.9201 76.2075 26.3853 72.7459C27.7971 70.3606 31.4492 68.2836 34.1883 68.1324V68.1354Z" fill="#1E3F5E"/>
<path d="M48.0983 68.1323C51.1004 67.972 55.0548 70.1699 56.6239 72.7458C52.0709 76.1741 45.6404 76.7304 42.469 71.2372C43.7932 69.5441 45.9306 68.2502 48.1013 68.1323H48.0983Z" fill="#1E3F5E"/>
<path d="M82.0162 33.6006V37.9843C82.0162 38.598 80.7736 41.4217 80.3352 42.0476C78.8992 44.0852 76.0755 45.3459 73.5934 45.0466C71.4166 38.982 76.3808 34.3564 82.0162 33.6006Z" fill="#1E3F5E"/>
<path d="M0.99292 33.6006C6.7099 34.4259 11.5199 38.9215 9.41571 45.0466C6.93664 45.3459 4.1099 44.0822 2.67385 42.0476C2.23245 41.4217 0.99292 38.598 0.99292 37.9843V33.6006Z" fill="#1E3F5E"/>
<path d="M39.9929 4.2751C40.3375 3.08999 40.6822 1.86255 41.1236 0.707663C41.2475 0.384175 41.0268 -0.150942 41.6496 0.0425468C41.9429 0.133245 42.5052 3.77022 43.3124 4.12999L47.548 4.28115L44.0622 6.98394C43.8687 7.38301 45.6434 11.2498 44.9752 11.2346L41.5982 8.86138L37.8766 11.2286L38.9438 6.98394L35.458 4.27813H39.9929V4.2751Z" fill="#1E3F5E"/>
<path d="M29.1393 8.17515L32.737 8.20841L30.0765 10.5152L30.92 13.6472L28.0449 11.8363L25.4842 13.6472L26.3337 10.5091L23.6672 8.20841L27.0049 8.06632L27.9028 5.18213C28.7947 5.36957 28.9126 7.97864 29.1393 8.17515Z" fill="#1E3F5E"/>
<path d="M59.3416 8.20831L56.7718 10.3034L57.5246 13.6472L54.9639 11.8362L52.0888 13.6472L52.9323 10.5151L50.2688 8.35645L53.8695 8.17506L54.9579 5.18506L56.0039 8.06622L59.3416 8.20831Z" fill="#1E3F5E"/>
<path d="M41.7588 55.8003C39.3855 55.8003 37.1547 55.3731 35.0662 54.5188C33.0094 53.6328 31.1899 52.3987 29.6077 50.8165C28.0572 49.2343 26.8389 47.4148 25.9529 45.358C25.0985 43.2695 24.6713 41.0229 24.6713 38.618C24.6713 36.1814 25.1143 33.9347 26.0004 31.8779C26.8864 29.7895 28.1205 27.97 29.7026 26.4194C31.2848 24.8373 33.136 23.619 35.2561 22.7646C37.3762 21.8786 39.6703 21.4356 42.1385 21.4356C44.8915 21.4356 47.423 21.9577 49.7329 23.0019C52.0429 24.0145 53.9573 25.4543 55.4762 27.3213L51.1094 31.6881C50.0652 30.3274 48.7678 29.2832 47.2173 28.5554C45.6667 27.8276 43.958 27.4637 42.091 27.4637C39.9709 27.4637 38.0881 27.9383 36.4427 28.8876C34.8289 29.8053 33.5631 31.1027 32.6455 32.7798C31.7278 34.4252 31.269 36.3555 31.269 38.5705C31.269 40.7855 31.712 42.7474 32.598 44.4562C33.5157 46.1333 34.7498 47.4465 36.3003 48.3958C37.8825 49.3451 39.6861 49.8197 41.7113 49.8197C43.7998 49.8197 45.5876 49.44 47.0749 48.6806C48.5621 47.8895 49.7013 46.7503 50.4924 45.2631C51.2834 43.7442 51.679 41.8931 51.679 39.7097L55.9034 42.605L41.3316 42.4626V36.8618H58.3241V37.7636C58.3241 41.7507 57.6121 45.089 56.1882 47.7787C54.7642 50.4368 52.8023 52.4461 50.3025 53.8068C47.8343 55.1358 44.9864 55.8003 41.7588 55.8003Z" fill="#1E3F5E"/>
</g>
<defs>
<clipPath id="clip0_357_452">
<rect width="81.25" height="75.3637" fill="white" transform="translate(0.875)"/>
</clipPath>
</defs>
</svg>
