<svg width="25" height="25" viewBox="0 0 25 25" fill="none" xmlns="http://www.w3.org/2000/svg">
<path d="M2.5 12.704C2.5 10.415 2.5 9.271 3.02 8.323C3.538 7.374 4.487 6.786 6.384 5.608L8.384 4.367C10.389 3.122 11.392 2.5 12.5 2.5C13.608 2.5 14.61 3.122 16.616 4.367L18.616 5.608C20.513 6.786 21.462 7.374 21.981 8.323C22.5 9.272 22.5 10.415 22.5 12.703V14.225C22.5 18.125 22.5 20.076 21.328 21.288C20.156 22.5 18.271 22.5 14.5 22.5H10.5C6.729 22.5 4.843 22.5 3.672 21.288C2.501 20.076 2.5 18.126 2.5 14.225V12.704Z" stroke="#668BAD" stroke-width="1.5"/>
<path d="M12.5 15.5V18.5" stroke="#668BAD" stroke-width="1.5" stroke-linecap="round"/>
</svg>
