<svg width="82" height="76" viewBox="0 0 82 76" fill="none" xmlns="http://www.w3.org/2000/svg">
<g clip-path="url(#clip0_1_85)">
<path d="M21.8309 63.3098C23.2398 63.2252 24.9419 63.5275 26.2207 64.1866C27.1821 64.6824 29.9574 67.3277 29.3044 68.3677C29.0928 68.7063 26.5956 70.1424 26.0635 70.2815C21.6223 71.4303 18.0156 68.9512 15.2402 65.801C17.0542 64.5342 19.6058 63.4428 21.8309 63.3128V63.3098Z" fill="white"/>
<path d="M7.67603 56.2778C13.2177 54.6815 19.2551 55.8303 20.6367 62.1399C15.5274 65.9643 9.03649 61.768 7.67603 56.2778Z" fill="white"/>
<path d="M73.8853 56.2784C71.7842 61.6447 66.1216 66.0496 60.6223 62.1405C62.1339 55.6254 68.1956 54.7819 73.8853 56.2784Z" fill="white"/>
<path d="M58.1039 63.3038C60.7614 63.1012 63.8632 64.2924 66.0188 65.7979C63.18 68.9179 59.6851 71.4393 55.1955 70.2784C54.1434 70.0063 51.5676 68.5793 51.9365 67.4486C52.6197 65.3475 55.9907 63.467 58.1039 63.3038Z" fill="white"/>
<path d="M6.43652 34.7888C0.0181446 33.8637 -1.3272 26.5655 1.19419 21.5137C6.5 23.899 9.62907 29.3197 6.43954 34.7888H6.43652Z" fill="white"/>
<path d="M13.4203 54.7637H8.73422C8.51655 54.7637 5.88632 53.1342 5.55074 52.8077C3.7519 51.0693 2.6726 47.9674 2.2312 45.5458C8.0419 44.7749 14.1912 48.2305 13.4203 54.7637Z" fill="white"/>
<path d="M74.8195 34.7888C71.5998 29.2199 74.7167 23.9504 80.0739 21.5076C82.5742 26.6713 81.2137 33.7397 74.8195 34.7888Z" fill="white"/>
<path d="M67.8389 54.763C67.068 48.2298 73.2203 44.7772 79.028 45.5451C78.5503 47.997 77.4256 51.2379 75.5452 52.9461C75.0917 53.3572 72.6731 54.763 72.2226 54.763H67.8389Z" fill="white"/>
<path d="M33.3133 68.135C35.7198 68.0019 38.223 69.3624 39.6651 71.2368C36.5058 76.7422 30.0451 76.207 25.5103 72.7454C26.9221 70.3601 30.5742 68.2831 33.3133 68.1319V68.135Z" fill="white"/>
<path d="M47.2233 68.1321C50.2254 67.9719 54.1798 70.1698 55.7489 72.7456C51.1958 76.174 44.7654 76.7303 41.594 71.237C42.9182 69.544 45.0556 68.2501 47.2263 68.1321H47.2233Z" fill="white"/>
<path d="M81.1412 33.6006V37.9844C81.1412 38.5981 79.8986 41.4218 79.4602 42.0476C78.0242 44.0853 75.2005 45.346 72.7184 45.0467C70.5416 38.982 75.5058 34.3565 81.1412 33.6006Z" fill="white"/>
<path d="M0.117874 33.6006C5.83485 34.426 10.6449 38.9216 8.54067 45.0467C6.0616 45.346 3.23485 44.0823 1.7988 42.0476C1.35741 41.4218 0.117874 38.5981 0.117874 37.9844V33.6006Z" fill="white"/>
<path d="M39.1179 4.27462C39.4625 3.0895 39.8072 1.86206 40.2486 0.707175C40.3725 0.383686 40.1518 -0.15143 40.7746 0.0420586C41.0679 0.132756 41.6302 3.76973 42.4374 4.1295L46.673 4.28066L43.1872 6.98345C42.9937 7.38252 44.7684 11.2493 44.1002 11.2342L40.7232 8.8609L37.0016 11.2281L38.0688 6.98345L34.583 4.27764H39.1179V4.27462Z" fill="white"/>
<path d="M28.2643 8.17466L31.862 8.20792L29.2015 10.5147L30.045 13.6468L27.1699 11.8358L24.6092 13.6468L25.4587 10.5086L22.7922 8.20792L26.1299 8.06583L27.0278 5.18164C27.9197 5.36908 28.0376 7.97815 28.2643 8.17466Z" fill="white"/>
<path d="M58.4666 8.20783L55.8968 10.3029L56.6496 13.6467L54.0889 11.8357L51.2138 13.6467L52.0573 10.5146L49.3938 8.35597L52.9945 8.17457L54.0829 5.18457L55.1289 8.06573L58.4666 8.20783Z" fill="white"/>
</g>
<defs>
<clipPath id="clip0_1_85">
<rect width="81.25" height="75.3637" fill="white"/>
</clipPath>
</defs>
</svg>
