<svg width="35" height="35" viewBox="0 0 35 35" fill="none" xmlns="http://www.w3.org/2000/svg">
<rect width="35" height="35" rx="17.5" fill="#D9D9D9"/>
<path d="M10.4999 8.50008L10.4999 26.5001C10.5005 26.6823 10.5507 26.861 10.6453 27.0168C10.7398 27.1726 10.8751 27.2996 11.0364 27.3843C11.1978 27.4689 11.3793 27.508 11.5612 27.4972C11.7431 27.4864 11.9186 27.4262 12.0689 27.3231L25.0689 18.3231C25.6079 17.9501 25.6079 17.0521 25.0689 16.6781L12.0689 7.67808C11.919 7.57391 11.7433 7.51282 11.5611 7.50145C11.3789 7.49008 11.197 7.52887 11.0353 7.6136C10.8736 7.69833 10.7381 7.82576 10.6438 7.98205C10.5494 8.13834 10.4996 8.3175 10.4999 8.50008ZM22.7429 17.5001L12.4999 24.5921L12.4999 10.4081L22.7429 17.5001Z" fill="black"/>
</svg>
