<svg width="36" height="35" viewBox="0 0 36 35" fill="none" xmlns="http://www.w3.org/2000/svg">
<rect x="0.5" width="35" height="35" rx="17.5" fill="#D9D9D9"/>
<path d="M10.9999 8.50008L10.9999 26.5001C11.0005 26.6823 11.0507 26.861 11.1453 27.0168C11.2398 27.1726 11.3751 27.2996 11.5364 27.3843C11.6978 27.4689 11.8793 27.508 12.0612 27.4972C12.2431 27.4864 12.4186 27.4262 12.5689 27.3231L25.5689 18.3231C26.1079 17.9501 26.1079 17.0521 25.5689 16.6781L12.5689 7.67808C12.419 7.57391 12.2433 7.51282 12.0611 7.50145C11.8789 7.49008 11.697 7.52887 11.5353 7.6136C11.3736 7.69833 11.2381 7.82576 11.1438 7.98205C11.0494 8.13834 10.9996 8.3175 10.9999 8.50008ZM23.2429 17.5001L12.9999 24.5921L12.9999 10.4081L23.2429 17.5001Z" fill="black"/>
</svg>
