<svg width="25" height="25" viewBox="0 0 25 25" fill="none" xmlns="http://www.w3.org/2000/svg">
<path d="M6.104 2.79346H19.1885C19.9513 2.79425 20.6826 3.09762 21.222 3.63699C21.7613 4.17636 22.0647 4.90767 22.0655 5.67046V18.668C22.0647 19.4307 21.7613 20.1621 21.222 20.7014C20.6826 21.2408 19.9513 21.5442 19.1885 21.545H6.104C5.95173 21.5442 5.80591 21.4834 5.6981 21.3759C5.59029 21.2684 5.52918 21.1227 5.528 20.9705V18.476H4.5695C4.49148 18.4799 4.41347 18.468 4.34021 18.4409C4.26695 18.4138 4.19997 18.3721 4.14334 18.3183C4.08672 18.2645 4.04162 18.1997 4.01081 18.1279C3.98 18.0561 3.96411 17.9788 3.96411 17.9007C3.96411 17.8226 3.98 17.7453 4.01081 17.6735C4.04162 17.6017 4.08672 17.537 4.14334 17.4832C4.19997 17.4293 4.26695 17.3876 4.34021 17.3605C4.41347 17.3334 4.49148 17.3215 4.5695 17.3255H5.5295V12.746H4.5695C4.42201 12.7384 4.28305 12.6745 4.18133 12.5675C4.0796 12.4604 4.02288 12.3184 4.02288 12.1707C4.02288 12.023 4.0796 11.881 4.18133 11.7739C4.28305 11.6669 4.42201 11.603 4.5695 11.5955H5.5295V7.01446H4.5695C4.42201 7.00692 4.28305 6.94303 4.18133 6.83598C4.0796 6.72892 4.02288 6.58688 4.02288 6.43921C4.02288 6.29153 4.0796 6.14949 4.18133 6.04244C4.28305 5.93538 4.42201 5.87149 4.5695 5.86396H5.5295V3.36946C5.53028 3.21719 5.59101 3.07137 5.69854 2.96356C5.80607 2.85575 5.95173 2.79464 6.104 2.79346ZM6.68 3.94396V5.86396H7.6385C7.71651 5.85997 7.79452 5.8719 7.86778 5.89901C7.94104 5.92612 8.00802 5.96784 8.06465 6.02165C8.12128 6.07546 8.16637 6.14023 8.19718 6.21201C8.22799 6.28379 8.24388 6.36109 8.24388 6.43921C8.24388 6.51732 8.22799 6.59462 8.19718 6.6664C8.16637 6.73819 8.12128 6.80295 8.06465 6.85676C8.00802 6.91057 7.94104 6.9523 7.86778 6.97941C7.79452 7.00652 7.71651 7.01844 7.6385 7.01446H6.6785V11.5955H7.6385C7.78598 11.603 7.92494 11.6669 8.02666 11.7739C8.12839 11.881 8.18511 12.023 8.18511 12.1707C8.18511 12.3184 8.12839 12.4604 8.02666 12.5675C7.92494 12.6745 7.78598 12.7384 7.6385 12.746H6.6785V17.327H7.6385C7.78598 17.3345 7.92494 17.3984 8.02666 17.5054C8.12839 17.6125 8.18511 17.7545 8.18511 17.9022C8.18511 18.0499 8.12839 18.1919 8.02666 18.299C7.92494 18.406 7.78598 18.4699 7.6385 18.4775H6.6785V20.396H19.187C19.4138 20.3962 19.6384 20.3516 19.8479 20.2649C20.0575 20.1782 20.2479 20.0511 20.4083 19.8907C20.5686 19.7304 20.6958 19.54 20.7825 19.3304C20.8692 19.1208 20.9137 18.8962 20.9135 18.6695V5.67196C20.9137 5.4453 20.8692 5.22083 20.7826 5.01137C20.696 4.80191 20.569 4.61157 20.4088 4.45123C20.2486 4.29089 20.0584 4.16369 19.849 4.07691C19.6396 3.99012 19.4152 3.94546 19.1885 3.94546L6.68 3.94396Z" fill="white" stroke="white" stroke-width="0.5"/>
<path d="M17.9149 12.107C17.9141 12.2592 17.8534 12.4051 17.7459 12.5129C17.6383 12.6207 17.4927 12.6818 17.3404 12.683H11.2009C11.0534 12.6754 10.9145 12.6115 10.8127 12.5045C10.711 12.3974 10.6543 12.2554 10.6543 12.1077C10.6543 11.96 10.711 11.818 10.8127 11.7109C10.9145 11.6039 11.0534 11.54 11.2009 11.5325H17.3389C17.4909 11.5336 17.6364 11.5945 17.7438 11.702C17.8513 11.8095 17.9137 11.955 17.9149 12.107ZM17.3389 14.6H11.2009C11.0534 14.6075 10.9145 14.6714 10.8127 14.7784C10.711 14.8855 10.6543 15.0275 10.6543 15.1752C10.6543 15.3229 10.711 15.4649 10.8127 15.572C10.9145 15.679 11.0534 15.7429 11.2009 15.7505H17.3389C17.4169 15.7544 17.4949 15.7425 17.5682 15.7154C17.6415 15.6883 17.7084 15.6466 17.7651 15.5928C17.8217 15.539 17.8668 15.4742 17.8976 15.4024C17.9284 15.3306 17.9443 15.2533 17.9443 15.1752C17.9443 15.0971 17.9284 15.0198 17.8976 14.948C17.8668 14.8762 17.8217 14.8115 17.7651 14.7577C17.7084 14.7038 17.6415 14.6621 17.5682 14.635C17.4949 14.6079 17.4169 14.596 17.3389 14.6ZM17.9164 9.06046C17.9156 9.21298 17.8547 9.35903 17.7468 9.46688C17.639 9.57473 17.4929 9.63567 17.3404 9.63646H11.2039C11.0564 9.62893 10.9175 9.56504 10.8157 9.45798C10.714 9.35093 10.6573 9.20889 10.6573 9.06121C10.6573 8.91353 10.714 8.7715 10.8157 8.66444C10.9175 8.55739 11.0564 8.4935 11.2039 8.48596H17.3404C17.4927 8.48675 17.6385 8.54748 17.7463 8.65501C17.8541 8.76253 17.9152 8.9082 17.9164 9.06046Z" fill="white" stroke="white" stroke-width="0.5"/>
</svg>
