<svg width="61" height="60" viewBox="0 0 61 60" fill="none" xmlns="http://www.w3.org/2000/svg">
<circle cx="30.5" cy="30" r="30" fill="white"/>
<g clip-path="url(#clip0_100_301)">
<path d="M31 12C21.0745 12 13 20.0745 13 30C13 39.9255 21.0745 48 31 48C40.9255 48 49 39.9255 49 30H44.95C44.95 37.692 38.692 43.95 31 43.95C23.308 43.95 17.05 37.692 17.05 30C17.05 22.308 23.308 16.05 31 16.05V12ZM42.1 15.8745L30.8425 29.931L25.582 25.62L22.579 29.274L29.6905 35.106C29.9321 35.3053 30.211 35.4545 30.5108 35.5449C30.8107 35.6353 31.1255 35.6651 31.437 35.6326C31.7485 35.6 32.0504 35.5058 32.3251 35.3554C32.5998 35.205 32.8418 35.0014 33.037 34.7565L45.793 18.831L42.1 15.8745Z" fill="black"/>
</g>
<defs>
<clipPath id="clip0_100_301">
<rect width="36" height="36" fill="white" transform="translate(13 12)"/>
</clipPath>
</defs>
</svg>
