<svg width="39" height="38" viewBox="0 0 39 38" fill="none" xmlns="http://www.w3.org/2000/svg">
<circle cx="19.5" cy="19" r="19" fill="white"/>
<path d="M19.5072 8.01381C17.3695 8.01381 15.4349 8.1475 14.0125 8.36833C13.3014 8.47872 12.7209 8.60786 12.2841 8.76817C12.0656 8.84833 11.8824 8.93294 11.7231 9.05383C11.5713 9.169 11.4113 9.35195 11.3963 9.60461H11.3612C11.3612 10.0771 11.3782 10.5431 11.4111 11.0021H10.1966C10.191 10.6293 10.1968 10.2557 10.2143 9.88295L8.95744 9.58858C8.55694 14.5888 10.5046 19.4556 14.0888 22.9215L14.8227 21.5343C14.6273 21.3725 14.4373 21.2044 14.2528 21.0303C14.5299 20.7408 14.8324 20.4765 15.1566 20.2408C15.7879 20.8583 16.4776 21.3454 17.2103 21.6778C18.2469 22.5095 17.5878 23.0544 16.1087 23.377C18.8679 23.8739 17.9344 26.2958 15.4466 27.7042C15.3463 27.7168 15.2471 27.7287 15.1523 27.7422C14.5876 27.8228 14.1268 27.9161 13.7738 28.0352C13.5974 28.0947 13.4477 28.1571 13.3095 28.2535C13.1712 28.3498 12.9989 28.5209 12.9989 28.7881C12.9989 29.0553 13.1713 29.225 13.3095 29.3213C13.4477 29.4176 13.5973 29.4801 13.7738 29.5396C14.1268 29.6587 14.5876 29.752 15.1523 29.8326C16.2817 29.9936 17.814 30.0918 19.5072 30.0918C21.2004 30.0918 22.7328 29.9936 23.8622 29.8326C24.4269 29.752 24.8877 29.6587 25.2406 29.5396C25.4171 29.4801 25.5668 29.4176 25.7049 29.3214C25.8431 29.225 26.0155 29.0554 26.0155 28.7882C26.0155 28.5209 25.8431 28.3498 25.7049 28.2535C25.5668 28.1571 25.4171 28.0947 25.2406 28.0352C24.8876 27.9161 24.4268 27.8228 23.8621 27.7422C23.7677 27.7288 23.669 27.7167 23.5691 27.7041C21.0812 26.2958 20.1477 23.874 22.907 23.377C21.4273 23.0542 20.7681 22.5088 21.807 21.6764C22.5448 21.3412 23.2388 20.8488 23.8738 20.2247C24.1854 20.4484 24.4756 20.6952 24.7396 20.9615C24.5464 21.1582 24.3476 21.3492 24.1433 21.5342L24.9021 22.9214C28.6108 19.5485 30.3488 14.506 30.0598 9.56205L28.7781 9.93564C28.7992 10.2924 28.8081 10.6477 28.8045 11.002H27.6047C27.638 10.5369 27.6546 10.0708 27.6546 9.60452H27.6194C27.6043 9.35186 27.443 9.16891 27.2913 9.05373C27.1318 8.9328 26.9486 8.84828 26.7302 8.76812C26.2933 8.60772 25.7128 8.47858 25.0017 8.36819C23.5794 8.14741 21.6448 8.01367 19.507 8.01367L19.5072 8.01381ZM19.5072 8.88981C21.6083 8.88981 23.5116 9.02359 24.8671 9.23402C25.5449 9.33925 26.0887 9.4652 26.4286 9.58998C26.4774 9.60789 26.5118 9.62514 26.5517 9.64272C26.5118 9.6603 26.4776 9.6775 26.4286 9.69545C26.0887 9.82023 25.5449 9.94764 24.8671 10.0529C23.5116 10.2633 21.6083 10.3971 19.5072 10.3971C17.4063 10.3971 15.5029 10.2633 14.1473 10.0528C13.4695 9.94759 12.9258 9.82019 12.5858 9.69541C12.5366 9.67731 12.5029 9.66034 12.4628 9.64267C12.5028 9.62505 12.5367 9.60798 12.5858 9.58994C12.9258 9.46516 13.4696 9.33916 14.1474 9.23397C15.5029 9.0235 17.4062 8.88981 19.5072 8.88981ZM10.2611 12.2589H11.5429C11.9206 14.9719 12.8662 17.3603 14.1767 19.1144C13.8498 19.3834 13.5482 19.6754 13.2773 19.9904C11.4656 17.8127 10.5097 15.085 10.2611 12.2589ZM27.4731 12.2589H28.7387C28.4769 15.0542 27.4375 17.7036 25.6888 19.8908C25.4311 19.6043 25.1515 19.3384 24.8525 19.0953C26.1561 17.3431 27.0965 14.9621 27.4731 12.259V12.2589Z" fill="black"/>
</svg>
